PathFileType	4	(X/Y/Z)	pose_F01_0-95.trc
DataRate	CameraRate	NumFrames	NumMarkers	Units	OrigDataRate	OrigDataStartFrame	OrigNumFrames
30	30	9	21	m	30	23	95
Frame#	Time	CHip			RHip			RKnee			RAnkle			RBigToe			RSmallToe			RHeel			LHip			LKnee			LAnkle			LBigToe			LSmallToe			LHeel			Neck			Nose			RShoulder			RElbow			RWrist			LShoulder			LElbow			LWrist			
		X1	Y1	Z1	X2	Y2	Z2	X3	Y3	Z3	X4	Y4	Z4	X5	Y5	Z5	X6	Y6	Z6	X7	Y7	Z7	X8	Y8	Z8	X9	Y9	Z9	X10	Y10	Z10	X11	Y11	Z11	X12	Y12	Z12	X13	Y13	Z13	X14	Y14	Z14	X15	Y15	Z15	X16	Y16	Z16	X17	Y17	Z17	X18	Y18	Z18	X19	Y19	Z19	X20	Y20	Z20	X21	Y21	Z21	
23	0.7666666666666667	-0.2557303533408318	1.8788979239792623	-0.5925332613008488	-0.27309653376419135	1.8755648873474775	-0.52252237931811	-0.2841522980045108	1.7692237163766447	-0.5264980858976387													-0.24127518749308072	1.8830489486131468	-0.6581283999278016	-0.24330692083537778	1.7299896266889259	-0.6561079020242313	-0.253093107029543	1.6422463480597265	-0.7263220785422395	-0.24101748814388924	1.6003396575087554	-0.7219903137502093	-0.2354860569718144	1.6073355472560678	-0.7570578153261979	-0.26091162479911184	1.6382621986162484	-0.7107211543505683	-0.2633278869992358	2.0534342078285763	-0.6090330247283229	-0.24970376602533428	2.1205761512680588	-0.5821274269924482	-0.2864264532613507	2.048993759346313	-0.5175989587375098	-0.291388753219692	1.961086685999624	-0.49514417376344183	-0.2938627288865534	1.8790314138933555	-0.4519362094683502	-0.23594428096100864	2.059345758939541	-0.7053626407309046	-0.23261286727529604	1.9664758613312419	-0.723517729186565	-0.21833588334724516	1.8808531590546276	-0.7182503144508499
24	0.8	-0.2581962827927228	1.8774750937937728	-0.5902805093980488	-0.2752495423826986	1.874279254008055	-0.520248764377969	-0.2841522980045108	1.7692237163766447	-0.5264980858976387													-0.24167738937249772	1.8803475498230873	-0.6578378734801905	-0.24330692083537778	1.7299896266889259	-0.6561079020242313	-0.253093107029543	1.6422463480597265	-0.7263220785422395	-0.24101748814388924	1.6003396575087554	-0.7219903137502093	-0.2354860569718144	1.6073355472560678	-0.7570578153261979	-0.26091162479911184	1.6382621986162484	-0.7107211543505683	-0.26335811559411326	2.0534452423824323	-0.609005617455571	-0.2496710304398202	2.1206089325536244	-0.5820897112036367	-0.28648536009651354	2.050304480715135	-0.5180988925703512	-0.29148322431675205	1.9608348988933675	-0.4951234576314565	-0.29513036256765884	1.8780863255961042	-0.4549186124981456	-0.23607315244950589	2.058220042678728	-0.7054286647802499	-0.23398069706678767	1.9656158627446676	-0.718039490455026	-0.2190299404562435	1.8777691752610748	-0.7208979236279239
25	0.8333333333333334	-0.257375105767796	1.8779555693524899	-0.5873479042053831	-0.2743328267443807	1.8751884101929601	-0.516999382711505	-0.2841522980045108	1.7692237163766447	-0.5264980858976387													-0.2417378409500676	1.881391896739252	-0.6580078296661049	-0.24330692083537778	1.7299896266889259	-0.6561079020242313	-0.253093107029543	1.6422463480597265	-0.7263220785422395	-0.24101748814388924	1.6003396575087554	-0.7219903137502093	-0.2354860569718144	1.6073355472560678	-0.7570578153261979	-0.26091162479911184	1.6382621986162484	-0.7107211543505683	-0.2633668121638229	2.0534226066693693	-0.6089305762829674	-0.24772459649445555	2.1206752335905947	-0.5841725433226829	-0.2864893253212336	2.0501880112122053	-0.5179593093794824	-1.6503962999007418	1.8746953085361424	0.9712571821467145	-0.29418146879929774	1.8899563706174016	-0.45210111689652366	-0.2360876433444057	2.058188984132753	-0.7054481214374403	-0.23286788298391425	1.9665452762618576	-0.7238036399271938	-0.21981698540737807	1.880991472184948	-0.7213700491487824
26	0.8666666666666667	-0.2581623618508207	1.8768272901103586	-0.5903201276031176	-0.2763656987218594	1.8750210700267669	-0.5235775143151279	-0.2841522980045108	1.7692237163766447	-0.5264980858976387													-0.24069501106386562	1.8800173387685433	-0.6548281730695648	-0.24330692083537778	1.7299896266889259	-0.6561079020242313	-0.253093107029543	1.6422463480597265	-0.7263220785422395	-0.24101748814388924	1.6003396575087554	-0.7219903137502093	-0.2354860569718144	1.6073355472560678	-0.7570578153261979	-0.26091162479911184	1.6382621986162484	-0.7107211543505683	-0.26336655964938516	2.0534452173014954	-0.6089978349114904	-0.24772435759659808	2.1206689504793923	-0.5841521668021648	-0.28648719747743256	2.048958570683812	-0.5175654651391917	-0.29157323152724257	1.9598821043579633	-0.49521397152874275	-0.29405726075422683	1.8795931592833925	-0.45252014689033315	-0.23606984040887236	2.058190856359218	-0.7054600840494119	-0.23171757241139473	1.9653638771455737	-0.7202603953947915	-0.21943001890964164	1.883832370179015	-0.7214073728944865
27	0.9	-0.25808844855685215	1.8795425874979952	-0.5906577566876672	-0.27434134560251994	1.8779838727555345	-0.5259802864267686	-0.2841522980045108	1.7692237163766447	-0.5264980858976387													-0.24048753807703407	1.8838325207046072	-0.6552704737722584	-0.24330692083537778	1.7299896266889259	-0.6561079020242313	-0.253093107029543	1.6422463480597265	-0.7263220785422395	-0.24101748814388924	1.6003396575087554	-0.7219903137502093	-0.2354860569718144	1.6073355472560678	-0.7570578153261979	-0.26091162479911184	1.6382621986162484	-0.7107211543505683	-0.2633262998273717	2.0534477659752137	-0.6089543584326645	-0.2467848723291138	2.120544784724811	-0.5812073701121393	-0.2864360234028404	2.0489365532555484	-0.51747793629359	-0.29038886925151747	1.9613032800968677	-0.49206315605019296	-0.2921856165104952	1.8787256019626881	-0.45422411828154957	-0.23597458302412275	2.0592588013328412	-0.7053901073420293	-0.23188136907737017	1.966453477588431	-0.72059306124261	-0.21904305241190522	1.886673268173082	-0.7214446966401907
28	0.9333333333333333	-0.2580874071498162	1.8796559792477736	-0.5906079100176955	-0.2744950364138226	1.8764673770449907	-0.5258644850074965	-0.2841522980045108	1.7692237163766447	-0.5264980858976387													-0.2406648294431729	1.882666604383225	-0.6550345101695767	-0.24330692083537778	1.7299896266889259	-0.6561079020242313	-0.253093107029543	1.6422463480597265	-0.7263220785422395	-0.24101748814388924	1.6003396575087554	-0.7219903137502093	-0.2354860569718144	1.6073355472560678	-0.7570578153261979	-0.26091162479911184	1.6382621986162484	-0.7107211543505683	-0.26333427662618347	2.0533684900439524	-0.6090139454849568	-0.24677910238428963	2.121849857665565	-0.5817013924955945	-0.2864404579339671	2.048867104234805	-0.517561724508969	-1.6406134561289614	1.8701835798305038	0.9546338989664532	-0.2940998986452156	1.877912234350047	-0.452208569704767	-0.23595044579557453	2.059383617366903	-0.7053992724131566	-0.2327171845069532	1.966451716905611	-0.723496470816548	-0.21937381307161133	1.8832834621093728	-0.7212470819758355
29	0.9666666666666667	-0.25610081452325545	1.8799562492270574	-0.5928732136284484	-0.2743080742994001	1.877559406729308	-0.5261529686022877	-0.2841522980045108	1.7692237163766447	-0.5264980858976387													-0.2392651003216216	1.8841317498505068	-0.6605933893591506	-0.24330692083537778	1.7299896266889259	-0.6561079020242313	-0.253093107029543	1.6422463480597265	-0.7263220785422395	-0.24101748814388924	1.6003396575087554	-0.7219903137502093	-0.2354860569718144	1.6073355472560678	-0.7570578153261979	-0.26091162479911184	1.6382621986162484	-0.7107211543505683	-0.26333503552578663	2.05338072396968	-0.6089764777805837	-0.24670526347076352	2.121926461226921	-0.5816617472756231	-0.2864292323194788	2.0489055182066944	-0.5174789848888814	-0.2936790847177924	1.9575052436805451	-0.4930128468708833	-0.29409116547743824	1.8771270610730704	-0.45204811827613645	-0.235963881811521	2.0594297824412644	-0.7054291137018076	-0.23262719353221084	1.9693013064409581	-0.7238186146103897	-0.21929007054286462	1.8874525093567303	-0.7214609770150683
30	1.0	-0.25732769740816236	1.879971492693642	-0.5959566637812445	-0.27557296822602767	1.8775919961054055	-0.5293224630035736	-0.2841522980045108	1.7692237163766447	-0.5264980858976387													-0.2425466197228029	1.8840368656198374	-0.6615149692206386	-0.24330692083537778	1.7299896266889259	-0.6561079020242313	-0.253093107029543	1.6422463480597265	-0.7263220785422395	-0.24101748814388924	1.6003396575087554	-0.7219903137502093	-0.2354860569718144	1.6073355472560678	-0.7570578153261979	-0.26091162479911184	1.6382621986162484	-0.7107211543505683	-0.26324189075300414	2.0545340150687474	-0.6088083192793734	-0.245820986799463	2.1204958431450525	-0.5781859871961703	-0.2854805396702265	2.0487544842981875	-0.5145138179358619	-0.29360032623477395	1.9585269813477422	-0.49319165450388824	-0.29410489148133434	1.8798403166854476	-0.45273886077552983	-0.23596532173992274	2.059351326618655	-0.7053565166931253	-0.23471779979346635	1.9687181343744422	-0.7213567285906299	-0.21928167553629777	1.885618609856853	-0.7214615337947325
31	1.0333333333333334	-0.25809952159769833	1.8800384731095898	-0.5906678972282293	-0.2744883511117294	1.8766645426909783	-0.5258082828488687	-0.2841522980045108	1.7692237163766447	-0.5264980858976387													-0.2415751067349228	1.8828181335087344	-0.6582697488586563	-0.24330692083537778	1.7299896266889259	-0.6561079020242313	-0.253093107029543	1.6422463480597265	-0.7263220785422395	-0.24101748814388924	1.6003396575087554	-0.7219903137502093	-0.2354860569718144	1.6073355472560678	-0.7570578153261979	-0.26091162479911184	1.6382621986162484	-0.7107211543505683	-0.2632461862424249	2.0557807785778555	-0.6093100242188976	-0.24581951482844056	2.121769039063301	-0.578734325449232	-0.28545556810789424	2.0486906137197454	-0.5144672376910238	-0.2938413531781434	1.958317782970106	-0.49324328968555997	-0.29347409790220536	1.881138862293967	-0.4498241337294904	-0.23597724510202286	2.0606017969764414	-0.7058983817455947	-0.23343383722033503	1.9700379234833192	-0.7269440841038635	-0.22047418540749944	1.8949109552822085	-0.7254580327781394
